<svg width="2560" height="1440" viewBox="0 0 2560 1440" fill="none" xmlns="http://www.w3.org/2000/svg">
<rect width="2560" height="1440" fill="#06090F"/>
<path d="M1066.04 585.828C1066.04 392.774 1066.04 296.486 1238.44 292.093C1245.38 291.916 1251.11 297.563 1251.11 304.506V389.088C1251.11 396.031 1245.46 401.617 1238.53 402.052C1141.14 408.163 1067.37 484.974 1066.04 585.828Z" fill="url(#paint0_linear_1_5)"/>
<ellipse cx="1252.73" cy="584.161" rx="186.69" ry="190.662" fill="url(#paint1_linear_1_5)"/>
<path d="M1016 1068.85C1002.95 1068.85 992.07 1066.57 983.37 1062C974.669 1057.21 967.708 1051.34 962.488 1044.38V1058.08C962.488 1060.26 961.727 1062.11 960.204 1063.63C958.899 1064.94 957.159 1065.59 954.984 1065.59H939.975C937.8 1065.59 935.951 1064.94 934.428 1063.63C933.123 1062.11 932.471 1060.26 932.471 1058.08V841.437C932.471 839.262 933.123 837.522 934.428 836.217C935.951 834.694 937.8 833.933 939.975 833.933H955.636C958.029 833.933 959.878 834.694 961.183 836.217C962.488 837.522 963.141 839.262 963.141 841.437V916.48C968.578 909.737 975.539 904.082 984.022 899.514C992.723 894.946 1003.38 892.662 1016 892.662C1028.18 892.662 1038.51 894.837 1046.99 899.188C1055.69 903.321 1062.76 909.085 1068.2 916.48C1073.86 923.876 1078.1 932.25 1080.93 941.604C1083.75 950.957 1085.28 960.745 1085.49 970.968C1085.71 974.449 1085.82 977.711 1085.82 980.757C1085.82 983.802 1085.71 987.065 1085.49 990.545C1085.28 1000.99 1083.75 1010.88 1080.93 1020.24C1078.1 1029.59 1073.86 1037.96 1068.2 1045.36C1062.76 1052.54 1055.69 1058.3 1046.99 1062.65C1038.51 1066.78 1028.18 1068.85 1016 1068.85ZM1009.15 1042.42C1020.46 1042.42 1029.27 1040.03 1035.57 1035.24C1042.1 1030.24 1046.78 1023.82 1049.6 1015.99C1052.43 1007.95 1054.06 999.354 1054.5 990.219C1054.72 983.911 1054.72 977.603 1054.5 971.295C1054.06 962.159 1052.43 953.676 1049.6 945.845C1046.78 937.797 1042.1 931.38 1035.57 926.595C1029.27 921.592 1020.46 919.091 1009.15 919.091C998.922 919.091 990.439 921.483 983.696 926.269C976.953 931.054 971.841 937.144 968.361 944.54C965.098 951.936 963.358 959.44 963.141 967.053C962.923 970.533 962.814 974.775 962.814 979.778C962.814 984.563 962.923 988.696 963.141 992.176C963.576 1000.22 965.316 1008.16 968.361 1015.99C971.624 1023.61 976.518 1029.92 983.043 1034.92C989.786 1039.92 998.487 1042.42 1009.15 1042.42ZM1134.02 1065.59C1131.84 1065.59 1130 1064.94 1128.47 1063.63C1127.17 1062.11 1126.52 1060.26 1126.52 1058.08V841.437C1126.52 839.262 1127.17 837.522 1128.47 836.217C1130 834.694 1131.84 833.933 1134.02 833.933H1149.35C1151.75 833.933 1153.6 834.694 1154.9 836.217C1156.21 837.522 1156.86 839.262 1156.86 841.437V1058.08C1156.86 1060.26 1156.21 1062.11 1154.9 1063.63C1153.6 1064.94 1151.75 1065.59 1149.35 1065.59H1134.02ZM1275.02 1068.85C1258.49 1068.85 1244.68 1065.7 1233.59 1059.39C1222.49 1053.08 1214.01 1044.38 1208.14 1033.29C1202.26 1021.98 1199 1009.14 1198.35 994.786C1198.13 991.089 1198.02 986.412 1198.02 980.757C1198.02 974.884 1198.13 970.207 1198.35 966.727C1199 952.153 1202.26 939.32 1208.14 928.226C1214.23 917.133 1222.82 908.432 1233.91 902.124C1245.01 895.816 1258.71 892.662 1275.02 892.662C1291.34 892.662 1305.04 895.816 1316.13 902.124C1327.23 908.432 1335.71 917.133 1341.58 928.226C1347.67 939.32 1351.05 952.153 1351.7 966.727C1351.92 970.207 1352.03 974.884 1352.03 980.757C1352.03 986.412 1351.92 991.089 1351.7 994.786C1351.05 1009.14 1347.78 1021.98 1341.91 1033.29C1336.04 1044.38 1327.55 1053.08 1316.46 1059.39C1305.37 1065.7 1291.56 1068.85 1275.02 1068.85ZM1275.02 1043.73C1288.51 1043.73 1299.28 1039.49 1307.33 1031C1315.37 1022.3 1319.72 1009.69 1320.38 993.155C1320.59 989.892 1320.7 985.759 1320.7 980.757C1320.7 975.754 1320.59 971.621 1320.38 968.358C1319.72 951.827 1315.37 939.32 1307.33 930.836C1299.28 922.136 1288.51 917.785 1275.02 917.785C1261.54 917.785 1250.66 922.136 1242.4 930.836C1234.35 939.32 1230.11 951.827 1229.67 968.358C1229.45 971.621 1229.35 975.754 1229.35 980.757C1229.35 985.759 1229.45 989.892 1229.67 993.155C1230.11 1009.69 1234.35 1022.3 1242.4 1031C1250.66 1039.49 1261.54 1043.73 1275.02 1043.73ZM1462.38 1137.37C1447.59 1137.37 1435.41 1135.41 1425.83 1131.5C1416.48 1127.58 1409.09 1122.8 1403.65 1117.14C1398.43 1111.7 1394.62 1106.16 1392.23 1100.5C1390.05 1095.06 1388.86 1090.71 1388.64 1087.45C1388.42 1085.27 1389.07 1083.42 1390.6 1081.9C1392.34 1080.38 1394.19 1079.62 1396.14 1079.62H1411.81C1413.76 1079.62 1415.39 1080.05 1416.7 1080.92C1418 1081.79 1419.09 1083.64 1419.96 1086.47C1421.27 1089.73 1423.22 1093.32 1425.83 1097.24C1428.45 1101.37 1432.47 1104.85 1437.91 1107.68C1443.35 1110.72 1450.96 1112.25 1460.75 1112.25C1470.97 1112.25 1479.56 1110.83 1486.52 1108C1493.48 1105.39 1498.7 1100.61 1502.18 1093.65C1505.88 1086.9 1507.73 1077.55 1507.73 1065.59V1043.4C1502.51 1050.14 1495.66 1055.8 1487.17 1060.37C1478.69 1064.72 1468.03 1066.89 1455.2 1066.89C1443.02 1066.89 1432.58 1064.83 1423.88 1060.69C1415.18 1056.34 1408 1050.58 1402.34 1043.4C1396.91 1036.01 1392.77 1027.63 1389.94 1018.28C1387.33 1008.93 1385.81 999.137 1385.38 988.913C1385.16 982.823 1385.16 976.841 1385.38 970.968C1385.81 960.745 1387.33 950.957 1389.94 941.604C1392.77 932.25 1396.91 923.876 1402.34 916.48C1408 909.085 1415.18 903.321 1423.88 899.188C1432.58 894.837 1443.02 892.662 1455.2 892.662C1468.25 892.662 1479.02 895.164 1487.5 900.167C1496.2 904.952 1503.27 910.825 1508.71 917.785V903.756C1508.71 901.58 1509.36 899.732 1510.67 898.209C1512.19 896.686 1514.04 895.925 1516.21 895.925H1531.22C1533.4 895.925 1535.25 896.686 1536.77 898.209C1538.29 899.732 1539.05 901.58 1539.05 903.756V1062C1539.05 1076.57 1536.55 1089.52 1531.55 1100.83C1526.76 1112.14 1518.71 1121.06 1507.4 1127.58C1496.31 1134.11 1481.3 1137.37 1462.38 1137.37ZM1461.73 1040.79C1472.6 1040.79 1481.3 1038.29 1487.83 1033.29C1494.57 1028.28 1499.46 1021.98 1502.51 1014.36C1505.77 1006.75 1507.51 999.028 1507.73 991.197C1507.95 988.152 1508.06 984.454 1508.06 980.104C1508.06 975.536 1507.95 971.73 1507.73 968.684C1507.51 960.854 1505.77 953.132 1502.51 945.519C1499.46 937.906 1494.57 931.598 1487.83 926.595C1481.3 921.592 1472.6 919.091 1461.73 919.091C1450.85 919.091 1442.15 921.592 1435.62 926.595C1429.1 931.38 1424.42 937.797 1421.59 945.845C1418.77 953.676 1417.13 962.159 1416.7 971.295C1416.48 976.95 1416.48 982.714 1416.7 988.587C1417.13 997.723 1418.77 1006.31 1421.59 1014.36C1424.42 1022.19 1429.1 1028.61 1435.62 1033.61C1442.15 1038.4 1450.85 1040.79 1461.73 1040.79Z" fill="#F7F9FC"/>
<path d="M1592.78 1065.59C1590.61 1065.59 1588.76 1064.94 1587.24 1063.63C1585.93 1062.11 1585.28 1060.26 1585.28 1058.08V1034.59C1585.28 1032.42 1585.93 1030.68 1587.24 1029.37C1588.76 1027.85 1590.61 1027.09 1592.78 1027.09H1616.28C1618.45 1027.09 1620.19 1027.85 1621.5 1029.37C1623.02 1030.68 1623.78 1032.42 1623.78 1034.59V1058.08C1623.78 1060.26 1623.02 1062.11 1621.5 1063.63C1620.19 1064.94 1618.45 1065.59 1616.28 1065.59H1592.78Z" fill="url(#paint2_linear_1_5)"/>
<path d="M2278.24 1339.4C2276.64 1339.4 2275.31 1339.12 2274.24 1338.56C2273.17 1337.97 2272.32 1337.25 2271.68 1336.4V1338.08C2271.68 1338.35 2271.59 1338.57 2271.4 1338.76C2271.24 1338.92 2271.03 1339 2270.76 1339H2268.92C2268.65 1339 2268.43 1338.92 2268.24 1338.76C2268.08 1338.57 2268 1338.35 2268 1338.08V1311.52C2268 1311.25 2268.08 1311.04 2268.24 1310.88C2268.43 1310.69 2268.65 1310.6 2268.92 1310.6H2270.84C2271.13 1310.6 2271.36 1310.69 2271.52 1310.88C2271.68 1311.04 2271.76 1311.25 2271.76 1311.52V1320.72C2272.43 1319.89 2273.28 1319.2 2274.32 1318.64C2275.39 1318.08 2276.69 1317.8 2278.24 1317.8C2279.73 1317.8 2281 1318.07 2282.04 1318.6C2283.11 1319.11 2283.97 1319.81 2284.64 1320.72C2285.33 1321.63 2285.85 1322.65 2286.2 1323.8C2286.55 1324.95 2286.73 1326.15 2286.76 1327.4C2286.79 1327.83 2286.8 1328.23 2286.8 1328.6C2286.8 1328.97 2286.79 1329.37 2286.76 1329.8C2286.73 1331.08 2286.55 1332.29 2286.2 1333.44C2285.85 1334.59 2285.33 1335.61 2284.64 1336.52C2283.97 1337.4 2283.11 1338.11 2282.04 1338.64C2281 1339.15 2279.73 1339.4 2278.24 1339.4ZM2277.4 1336.16C2278.79 1336.16 2279.87 1335.87 2280.64 1335.28C2281.44 1334.67 2282.01 1333.88 2282.36 1332.92C2282.71 1331.93 2282.91 1330.88 2282.96 1329.76C2282.99 1328.99 2282.99 1328.21 2282.96 1327.44C2282.91 1326.32 2282.71 1325.28 2282.36 1324.32C2282.01 1323.33 2281.44 1322.55 2280.64 1321.96C2279.87 1321.35 2278.79 1321.04 2277.4 1321.04C2276.15 1321.04 2275.11 1321.33 2274.28 1321.92C2273.45 1322.51 2272.83 1323.25 2272.4 1324.16C2272 1325.07 2271.79 1325.99 2271.76 1326.92C2271.73 1327.35 2271.72 1327.87 2271.72 1328.48C2271.72 1329.07 2271.73 1329.57 2271.76 1330C2271.81 1330.99 2272.03 1331.96 2272.4 1332.92C2272.8 1333.85 2273.4 1334.63 2274.2 1335.24C2275.03 1335.85 2276.09 1336.16 2277.4 1336.16ZM2294.61 1346.6C2294.39 1346.6 2294.21 1346.52 2294.05 1346.36C2293.89 1346.2 2293.81 1346.01 2293.81 1345.8C2293.81 1345.69 2293.82 1345.59 2293.85 1345.48C2293.87 1345.37 2293.93 1345.24 2294.01 1345.08L2297.09 1337.76L2289.45 1319.72C2289.31 1319.4 2289.25 1319.17 2289.25 1319.04C2289.25 1318.8 2289.33 1318.6 2289.49 1318.44C2289.65 1318.28 2289.85 1318.2 2290.09 1318.2H2292.05C2292.31 1318.2 2292.53 1318.27 2292.69 1318.4C2292.85 1318.53 2292.95 1318.69 2293.01 1318.88L2299.09 1333.44L2305.33 1318.88C2305.41 1318.69 2305.51 1318.53 2305.65 1318.4C2305.81 1318.27 2306.03 1318.2 2306.33 1318.2H2308.21C2308.45 1318.2 2308.65 1318.28 2308.81 1318.44C2308.97 1318.6 2309.05 1318.79 2309.05 1319C2309.05 1319.13 2308.98 1319.37 2308.85 1319.72L2297.49 1345.92C2297.41 1346.11 2297.29 1346.27 2297.13 1346.4C2296.99 1346.53 2296.78 1346.6 2296.49 1346.6H2294.61Z" fill="#3B7BD2"/>
<path d="M2269.4 1387C2269.11 1387 2268.88 1386.92 2268.72 1386.76C2268.56 1386.57 2268.48 1386.35 2268.48 1386.08V1359.96C2268.48 1359.67 2268.56 1359.44 2268.72 1359.28C2268.88 1359.09 2269.11 1359 2269.4 1359H2279.56C2281.53 1359 2283.24 1359.32 2284.68 1359.96C2286.15 1360.6 2287.28 1361.56 2288.08 1362.84C2288.88 1364.09 2289.28 1365.67 2289.28 1367.56C2289.28 1369.45 2288.88 1371.03 2288.08 1372.28C2287.28 1373.53 2286.15 1374.48 2284.68 1375.12C2283.24 1375.76 2281.53 1376.08 2279.56 1376.08H2272.48V1386.08C2272.48 1386.35 2272.39 1386.57 2272.2 1386.76C2272.04 1386.92 2271.81 1387 2271.52 1387H2269.4ZM2272.44 1372.72H2279.36C2281.33 1372.72 2282.81 1372.28 2283.8 1371.4C2284.79 1370.52 2285.28 1369.24 2285.28 1367.56C2285.28 1365.91 2284.8 1364.63 2283.84 1363.72C2282.88 1362.81 2281.39 1362.36 2279.36 1362.36H2272.44V1372.72ZM2301.63 1387.4C2298.88 1387.4 2296.7 1386.56 2295.07 1384.88C2293.44 1383.17 2292.55 1380.85 2292.39 1377.92C2292.36 1377.57 2292.35 1377.13 2292.35 1376.6C2292.35 1376.04 2292.36 1375.59 2292.39 1375.24C2292.5 1373.35 2292.94 1371.69 2293.71 1370.28C2294.48 1368.84 2295.54 1367.73 2296.87 1366.96C2298.23 1366.19 2299.82 1365.8 2301.63 1365.8C2303.66 1365.8 2305.35 1366.23 2306.71 1367.08C2308.1 1367.93 2309.15 1369.15 2309.87 1370.72C2310.59 1372.29 2310.95 1374.13 2310.95 1376.24V1376.92C2310.95 1377.21 2310.86 1377.44 2310.67 1377.6C2310.51 1377.76 2310.3 1377.84 2310.03 1377.84H2296.19C2296.19 1377.87 2296.19 1377.92 2296.19 1378C2296.19 1378.08 2296.19 1378.15 2296.19 1378.2C2296.24 1379.29 2296.48 1380.32 2296.91 1381.28C2297.34 1382.21 2297.95 1382.97 2298.75 1383.56C2299.55 1384.15 2300.51 1384.44 2301.63 1384.44C2302.59 1384.44 2303.39 1384.29 2304.03 1384C2304.67 1383.71 2305.19 1383.39 2305.59 1383.04C2305.99 1382.67 2306.26 1382.39 2306.39 1382.2C2306.63 1381.85 2306.82 1381.65 2306.95 1381.6C2307.08 1381.52 2307.3 1381.48 2307.59 1381.48H2309.51C2309.78 1381.48 2309.99 1381.56 2310.15 1381.72C2310.34 1381.85 2310.42 1382.05 2310.39 1382.32C2310.36 1382.72 2310.15 1383.21 2309.75 1383.8C2309.35 1384.36 2308.78 1384.92 2308.03 1385.48C2307.28 1386.04 2306.38 1386.51 2305.31 1386.88C2304.24 1387.23 2303.02 1387.4 2301.63 1387.4ZM2296.19 1375.08H2307.15V1374.96C2307.15 1373.76 2306.92 1372.69 2306.47 1371.76C2306.04 1370.83 2305.42 1370.09 2304.59 1369.56C2303.76 1369 2302.78 1368.72 2301.63 1368.72C2300.48 1368.72 2299.5 1369 2298.67 1369.56C2297.87 1370.09 2297.26 1370.83 2296.83 1371.76C2296.4 1372.69 2296.19 1373.76 2296.19 1374.96V1375.08ZM2323.33 1387.4C2321.87 1387.4 2320.6 1387.15 2319.53 1386.64C2318.47 1386.11 2317.59 1385.4 2316.89 1384.52C2316.23 1383.61 2315.72 1382.59 2315.37 1381.44C2315.05 1380.29 2314.87 1379.08 2314.81 1377.8C2314.79 1377.37 2314.77 1376.97 2314.77 1376.6C2314.77 1376.23 2314.79 1375.83 2314.81 1375.4C2314.87 1374.15 2315.05 1372.95 2315.37 1371.8C2315.72 1370.65 2316.23 1369.63 2316.89 1368.72C2317.59 1367.81 2318.47 1367.11 2319.53 1366.6C2320.6 1366.07 2321.87 1365.8 2323.33 1365.8C2324.91 1365.8 2326.21 1366.08 2327.25 1366.64C2328.29 1367.2 2329.15 1367.89 2329.81 1368.72V1359.52C2329.81 1359.25 2329.89 1359.04 2330.05 1358.88C2330.24 1358.69 2330.47 1358.6 2330.73 1358.6H2332.65C2332.92 1358.6 2333.13 1358.69 2333.29 1358.88C2333.48 1359.04 2333.57 1359.25 2333.57 1359.52V1386.08C2333.57 1386.35 2333.48 1386.57 2333.29 1386.76C2333.13 1386.92 2332.92 1387 2332.65 1387H2330.85C2330.56 1387 2330.33 1386.92 2330.17 1386.76C2330.01 1386.57 2329.93 1386.35 2329.93 1386.08V1384.4C2329.27 1385.25 2328.4 1385.97 2327.33 1386.56C2326.27 1387.12 2324.93 1387.4 2323.33 1387.4ZM2324.17 1384.16C2325.51 1384.16 2326.57 1383.85 2327.37 1383.24C2328.17 1382.63 2328.77 1381.85 2329.17 1380.92C2329.57 1379.96 2329.79 1378.99 2329.81 1378C2329.84 1377.57 2329.85 1377.07 2329.85 1376.48C2329.85 1375.87 2329.84 1375.35 2329.81 1374.92C2329.79 1373.99 2329.56 1373.07 2329.13 1372.16C2328.73 1371.25 2328.12 1370.51 2327.29 1369.92C2326.49 1369.33 2325.45 1369.04 2324.17 1369.04C2322.81 1369.04 2321.73 1369.35 2320.93 1369.96C2320.13 1370.55 2319.56 1371.33 2319.21 1372.32C2318.87 1373.28 2318.67 1374.32 2318.61 1375.44C2318.59 1376.21 2318.59 1376.99 2318.61 1377.76C2318.67 1378.88 2318.87 1379.93 2319.21 1380.92C2319.56 1381.88 2320.13 1382.67 2320.93 1383.28C2321.73 1383.87 2322.81 1384.16 2324.17 1384.16ZM2340.44 1387C2340.18 1387 2339.95 1386.92 2339.76 1386.76C2339.6 1386.57 2339.52 1386.35 2339.52 1386.08V1367.16C2339.52 1366.89 2339.6 1366.67 2339.76 1366.48C2339.95 1366.29 2340.18 1366.2 2340.44 1366.2H2342.28C2342.55 1366.2 2342.78 1366.29 2342.96 1366.48C2343.15 1366.67 2343.24 1366.89 2343.24 1367.16V1368.92C2343.78 1368.01 2344.51 1367.33 2345.44 1366.88C2346.38 1366.43 2347.5 1366.2 2348.8 1366.2H2350.4C2350.67 1366.2 2350.88 1366.29 2351.04 1366.48C2351.2 1366.64 2351.28 1366.85 2351.28 1367.12V1368.76C2351.28 1369.03 2351.2 1369.24 2351.04 1369.4C2350.88 1369.56 2350.67 1369.64 2350.4 1369.64H2348C2346.56 1369.64 2345.43 1370.07 2344.6 1370.92C2343.78 1371.75 2343.36 1372.88 2343.36 1374.32V1386.08C2343.36 1386.35 2343.27 1386.57 2343.08 1386.76C2342.9 1386.92 2342.67 1387 2342.4 1387H2340.44ZM2362.85 1387.4C2360.82 1387.4 2359.13 1387.01 2357.77 1386.24C2356.41 1385.47 2355.37 1384.4 2354.65 1383.04C2353.93 1381.65 2353.53 1380.08 2353.45 1378.32C2353.42 1377.87 2353.41 1377.29 2353.41 1376.6C2353.41 1375.88 2353.42 1375.31 2353.45 1374.88C2353.53 1373.09 2353.93 1371.52 2354.65 1370.16C2355.39 1368.8 2356.45 1367.73 2357.81 1366.96C2359.17 1366.19 2360.85 1365.8 2362.85 1365.8C2364.85 1365.8 2366.53 1366.19 2367.89 1366.96C2369.25 1367.73 2370.29 1368.8 2371.01 1370.16C2371.75 1371.52 2372.17 1373.09 2372.25 1374.88C2372.27 1375.31 2372.29 1375.88 2372.29 1376.6C2372.29 1377.29 2372.27 1377.87 2372.25 1378.32C2372.17 1380.08 2371.77 1381.65 2371.05 1383.04C2370.33 1384.4 2369.29 1385.47 2367.93 1386.24C2366.57 1387.01 2364.87 1387.4 2362.85 1387.4ZM2362.85 1384.32C2364.5 1384.32 2365.82 1383.8 2366.81 1382.76C2367.79 1381.69 2368.33 1380.15 2368.41 1378.12C2368.43 1377.72 2368.45 1377.21 2368.45 1376.6C2368.45 1375.99 2368.43 1375.48 2368.41 1375.08C2368.33 1373.05 2367.79 1371.52 2366.81 1370.48C2365.82 1369.41 2364.5 1368.88 2362.85 1368.88C2361.19 1368.88 2359.86 1369.41 2358.85 1370.48C2357.86 1371.52 2357.34 1373.05 2357.29 1375.08C2357.26 1375.48 2357.25 1375.99 2357.25 1376.6C2357.25 1377.21 2357.26 1377.72 2357.29 1378.12C2357.34 1380.15 2357.86 1381.69 2358.85 1382.76C2359.86 1383.8 2361.19 1384.32 2362.85 1384.32ZM2388.54 1387C2388.25 1387 2388.02 1386.92 2387.86 1386.76C2387.7 1386.57 2387.62 1386.35 2387.62 1386.08V1359.96C2387.62 1359.67 2387.7 1359.44 2387.86 1359.28C2388.02 1359.09 2388.25 1359 2388.54 1359H2397.62C2400.37 1359 2402.58 1359.41 2404.26 1360.24C2405.94 1361.07 2407.17 1362.29 2407.94 1363.92C2408.71 1365.52 2409.11 1367.49 2409.14 1369.84C2409.17 1371.04 2409.18 1372.09 2409.18 1373C2409.18 1373.91 2409.17 1374.95 2409.14 1376.12C2409.09 1378.57 2408.67 1380.61 2407.9 1382.24C2407.15 1383.84 2405.95 1385.04 2404.3 1385.84C2402.67 1386.61 2400.51 1387 2397.82 1387H2388.54ZM2391.54 1383.6H2397.62C2399.46 1383.6 2400.93 1383.35 2402.02 1382.84C2403.11 1382.33 2403.9 1381.52 2404.38 1380.4C2404.89 1379.28 2405.15 1377.8 2405.18 1375.96C2405.23 1375.16 2405.26 1374.47 2405.26 1373.88C2405.26 1373.27 2405.26 1372.67 2405.26 1372.08C2405.26 1371.47 2405.23 1370.77 2405.18 1370C2405.13 1367.41 2404.51 1365.51 2403.34 1364.28C2402.17 1363.03 2400.19 1362.4 2397.42 1362.4H2391.54V1383.6ZM2422.44 1387.4C2420.73 1387.4 2419.28 1387.03 2418.08 1386.28C2416.91 1385.51 2416.01 1384.44 2415.4 1383.08C2414.79 1381.72 2414.48 1380.16 2414.48 1378.4V1367.12C2414.48 1366.85 2414.56 1366.64 2414.72 1366.48C2414.91 1366.29 2415.13 1366.2 2415.4 1366.2H2417.4C2417.67 1366.2 2417.88 1366.29 2418.04 1366.48C2418.23 1366.64 2418.32 1366.85 2418.32 1367.12V1378.2C2418.32 1382.17 2420.05 1384.16 2423.52 1384.16C2425.17 1384.16 2426.49 1383.64 2427.48 1382.6C2428.49 1381.53 2429 1380.07 2429 1378.2V1367.12C2429 1366.85 2429.08 1366.64 2429.24 1366.48C2429.43 1366.29 2429.65 1366.2 2429.92 1366.2H2431.88C2432.17 1366.2 2432.4 1366.29 2432.56 1366.48C2432.72 1366.64 2432.8 1366.85 2432.8 1367.12V1386.08C2432.8 1386.35 2432.72 1386.57 2432.56 1386.76C2432.4 1386.92 2432.17 1387 2431.88 1387H2430.04C2429.77 1387 2429.55 1386.92 2429.36 1386.76C2429.2 1386.57 2429.12 1386.35 2429.12 1386.08V1384.32C2428.4 1385.25 2427.52 1386 2426.48 1386.56C2425.47 1387.12 2424.12 1387.4 2422.44 1387.4ZM2446.86 1387C2445.37 1387 2444.15 1386.72 2443.22 1386.16C2442.29 1385.57 2441.61 1384.76 2441.18 1383.72C2440.75 1382.65 2440.54 1381.4 2440.54 1379.96V1369.4H2437.42C2437.15 1369.4 2436.93 1369.32 2436.74 1369.16C2436.58 1368.97 2436.5 1368.75 2436.5 1368.48V1367.12C2436.5 1366.85 2436.58 1366.64 2436.74 1366.48C2436.93 1366.29 2437.15 1366.2 2437.42 1366.2H2440.54V1359.52C2440.54 1359.25 2440.62 1359.04 2440.78 1358.88C2440.97 1358.69 2441.19 1358.6 2441.46 1358.6H2443.34C2443.61 1358.6 2443.82 1358.69 2443.98 1358.88C2444.17 1359.04 2444.26 1359.25 2444.26 1359.52V1366.2H2449.22C2449.49 1366.2 2449.7 1366.29 2449.86 1366.48C2450.05 1366.64 2450.14 1366.85 2450.14 1367.12V1368.48C2450.14 1368.75 2450.05 1368.97 2449.86 1369.16C2449.7 1369.32 2449.49 1369.4 2449.22 1369.4H2444.26V1379.68C2444.26 1380.93 2444.47 1381.92 2444.9 1382.64C2445.33 1383.36 2446.09 1383.72 2447.18 1383.72H2449.62C2449.89 1383.72 2450.1 1383.81 2450.26 1384C2450.45 1384.16 2450.54 1384.37 2450.54 1384.64V1386.08C2450.54 1386.35 2450.45 1386.57 2450.26 1386.76C2450.1 1386.92 2449.89 1387 2449.62 1387H2446.86ZM2455.29 1387C2455.02 1387 2454.79 1386.92 2454.61 1386.76C2454.45 1386.57 2454.37 1386.35 2454.37 1386.08V1367.16C2454.37 1366.89 2454.45 1366.67 2454.61 1366.48C2454.79 1366.29 2455.02 1366.2 2455.29 1366.2H2457.13C2457.39 1366.2 2457.62 1366.29 2457.81 1366.48C2457.99 1366.67 2458.09 1366.89 2458.09 1367.16V1368.92C2458.62 1368.01 2459.35 1367.33 2460.29 1366.88C2461.22 1366.43 2462.34 1366.2 2463.65 1366.2H2465.25C2465.51 1366.2 2465.73 1366.29 2465.89 1366.48C2466.05 1366.64 2466.13 1366.85 2466.13 1367.12V1368.76C2466.13 1369.03 2466.05 1369.24 2465.89 1369.4C2465.73 1369.56 2465.51 1369.64 2465.25 1369.64H2462.85C2461.41 1369.64 2460.27 1370.07 2459.45 1370.92C2458.62 1371.75 2458.21 1372.88 2458.21 1374.32V1386.08C2458.21 1386.35 2458.11 1386.57 2457.93 1386.76C2457.74 1386.92 2457.51 1387 2457.25 1387H2455.29ZM2475.05 1387.4C2473.72 1387.4 2472.5 1387.13 2471.41 1386.6C2470.32 1386.07 2469.44 1385.35 2468.77 1384.44C2468.1 1383.53 2467.77 1382.51 2467.77 1381.36C2467.77 1379.52 2468.52 1378.05 2470.01 1376.96C2471.5 1375.87 2473.45 1375.15 2475.85 1374.8L2481.81 1373.96V1372.8C2481.81 1371.52 2481.44 1370.52 2480.69 1369.8C2479.97 1369.08 2478.78 1368.72 2477.13 1368.72C2475.93 1368.72 2474.96 1368.96 2474.21 1369.44C2473.49 1369.92 2472.98 1370.53 2472.69 1371.28C2472.53 1371.68 2472.25 1371.88 2471.85 1371.88H2470.05C2469.76 1371.88 2469.53 1371.8 2469.37 1371.64C2469.24 1371.45 2469.17 1371.24 2469.17 1371C2469.17 1370.6 2469.32 1370.11 2469.61 1369.52C2469.93 1368.93 2470.41 1368.36 2471.05 1367.8C2471.69 1367.24 2472.5 1366.77 2473.49 1366.4C2474.5 1366 2475.73 1365.8 2477.17 1365.8C2478.77 1365.8 2480.12 1366.01 2481.21 1366.44C2482.3 1366.84 2483.16 1367.39 2483.77 1368.08C2484.41 1368.77 2484.86 1369.56 2485.13 1370.44C2485.42 1371.32 2485.57 1372.21 2485.57 1373.12V1386.08C2485.57 1386.35 2485.48 1386.57 2485.29 1386.76C2485.13 1386.92 2484.92 1387 2484.65 1387H2482.81C2482.52 1387 2482.29 1386.92 2482.13 1386.76C2481.97 1386.57 2481.89 1386.35 2481.89 1386.08V1384.36C2481.54 1384.84 2481.08 1385.32 2480.49 1385.8C2479.9 1386.25 2479.17 1386.64 2478.29 1386.96C2477.41 1387.25 2476.33 1387.4 2475.05 1387.4ZM2475.89 1384.4C2476.98 1384.4 2477.98 1384.17 2478.89 1383.72C2479.8 1383.24 2480.5 1382.51 2481.01 1381.52C2481.54 1380.53 2481.81 1379.29 2481.81 1377.8V1376.68L2477.17 1377.36C2475.28 1377.63 2473.85 1378.08 2472.89 1378.72C2471.93 1379.33 2471.45 1380.12 2471.45 1381.08C2471.45 1381.83 2471.66 1382.45 2472.09 1382.96C2472.54 1383.44 2473.1 1383.8 2473.77 1384.04C2474.46 1384.28 2475.17 1384.4 2475.89 1384.4Z" fill="white"/>
<path d="M2491.96 1387C2491.69 1387 2491.47 1386.92 2491.28 1386.76C2491.12 1386.57 2491.04 1386.35 2491.04 1386.08V1383.2C2491.04 1382.93 2491.12 1382.72 2491.28 1382.56C2491.47 1382.37 2491.69 1382.28 2491.96 1382.28H2494.84C2495.11 1382.28 2495.32 1382.37 2495.48 1382.56C2495.67 1382.72 2495.76 1382.93 2495.76 1383.2V1386.08C2495.76 1386.35 2495.67 1386.57 2495.48 1386.76C2495.32 1386.92 2495.11 1387 2494.84 1387H2491.96Z" fill="#3B7BD2"/>
<defs>
<linearGradient id="paint0_linear_1_5" x1="1121.32" y1="284.085" x2="1185.57" y2="483.489" gradientUnits="userSpaceOnUse">
<stop stop-color="#5390E3"/>
<stop offset="1" stop-color="#1357B3"/>
</linearGradient>
<linearGradient id="paint1_linear_1_5" x1="1412.75" y1="428.165" x2="1093.35" y2="743.337" gradientUnits="userSpaceOnUse">
<stop stop-color="#5390E3"/>
<stop offset="1" stop-color="#1357B3"/>
</linearGradient>
<linearGradient id="paint2_linear_1_5" x1="1593.29" y1="793.225" x2="1322.39" y2="1307.19" gradientUnits="userSpaceOnUse">
<stop stop-color="#5390E3"/>
<stop offset="1" stop-color="#1357B3"/>
</linearGradient>
</defs>
</svg>
