<svg width="18" height="20" viewBox="0 0 18 20" fill="none" xmlns="http://www.w3.org/2000/svg">
<path fill-rule="evenodd" clip-rule="evenodd" d="M17.468 11.8241C17.3948 11.6291 17.2083 11.5 17 11.5L12.0532 11.5C11.777 11.5 11.5532 11.7239 11.5532 12C11.5532 12.2761 11.777 12.5 12.0532 12.5L15.6693 12.5L8.99998 18.3356L2.3307 12.5L5.99998 12.5C6.27612 12.5 6.49998 12.2761 6.49998 12C6.49998 9.98834 6.37527 7.43606 5.79583 5.24705C5.44762 3.93158 4.91584 2.67807 4.09602 1.76885C5.16727 2.02459 6.33312 2.47406 7.37536 3.16477C9.15194 4.34214 10.5532 6.20437 10.5532 9.025C10.5532 9.30114 10.777 9.525 11.0532 9.525C11.3293 9.525 11.5532 9.30114 11.5532 9.025C11.5532 5.80694 9.92781 3.65666 7.92778 2.33121C5.94839 1.01942 3.58657 0.499999 1.99998 0.499999C1.75063 0.499999 1.5394 0.683711 1.50481 0.930648C1.47023 1.17758 1.62286 1.41226 1.86262 1.48076C3.34114 1.9032 4.27551 3.4115 4.82913 5.50295C5.32976 7.39425 5.4765 9.61122 5.49726 11.5L0.999977 11.5C0.791674 11.5 0.605193 11.6291 0.531926 11.8241C0.45866 12.0191 0.51396 12.2391 0.670725 12.3763L8.67072 19.3763C8.85924 19.5412 9.14072 19.5412 9.32923 19.3763L17.3292 12.3763C17.486 12.2391 17.5413 12.0191 17.468 11.8241Z" fill="black"/>
</svg>
