<svg width="22" height="22" viewBox="0 0 22 22" fill="none" xmlns="http://www.w3.org/2000/svg">
<path fill-rule="evenodd" clip-rule="evenodd" d="M6.16049 0.061641C5.87495 -0.078861 5.52951 0.0362741 5.38536 0.319991C5.18023 0.723752 5.10937 1.21689 5.09988 1.68964C5.09018 2.17297 5.14396 2.69085 5.23003 3.18063C5.31635 3.67184 5.43762 4.14881 5.56963 4.5536C5.63077 4.74105 5.69725 4.92256 5.7675 5.08754C4.63592 6.15971 3.99731 7.95373 4.53589 9.69526C5.14514 11.6653 7.17791 13.3516 11.1343 13.9506C11.4519 13.9987 11.7482 13.7803 11.7963 13.4628C11.8444 13.1452 11.626 12.8489 11.3084 12.8008C7.58394 12.2369 6.07166 10.7251 5.64692 9.35167C5.20951 7.93727 5.83882 6.44189 6.83993 5.70295C7.08867 5.51936 7.15025 5.17323 6.98011 4.91511C6.9072 4.8045 6.79419 4.55769 6.67526 4.19302C6.56045 3.84098 6.45237 3.41728 6.37542 2.97936C6.29822 2.54002 6.25481 2.10032 6.26259 1.71299C6.26466 1.6097 6.27033 1.51364 6.27916 1.42491C6.68969 1.63899 7.11712 1.87577 7.52121 2.12667C8.14754 2.51554 8.6804 2.91572 9.01206 3.2931C9.18552 3.49046 9.46979 3.54698 9.70555 3.43097C10.7926 2.89607 12.1786 2.61851 13.5109 2.61851C14.8537 2.61851 16.0555 2.89988 16.8108 3.39541C16.95 3.48675 17.1217 3.51402 17.2823 3.47034C17.443 3.42665 17.5772 3.31618 17.651 3.16693C17.8111 2.84312 18.2375 2.45744 18.8204 2.05545C19.1656 1.81737 19.5058 1.61144 19.8166 1.42553C19.8212 1.45408 19.8256 1.48429 19.8296 1.51625C19.8708 1.83968 19.8695 2.24598 19.8391 2.69282C19.7844 3.49469 19.6426 4.34576 19.5425 4.94626C19.5311 5.01441 19.5203 5.07933 19.5102 5.14058C19.4915 5.25452 19.507 5.37147 19.555 5.47652C20.1194 6.71343 20.4861 8.13823 20.0452 9.42037C19.6178 10.6634 18.3573 11.9684 15.2065 12.8141C14.9953 12.8708 14.8338 13.0412 14.7884 13.255C14.7431 13.4689 14.8215 13.6902 14.9915 13.8277C15.8773 14.5445 17.3759 16.3312 18.4218 18.3943C18.6847 18.9128 18.5674 19.3694 18.2518 19.6984C17.9175 20.0467 17.3373 20.2652 16.6871 20.1501C15.5131 19.9424 14.1892 19.7719 12.9939 19.7719C11.5548 19.7719 9.67713 20.0198 8.0819 20.2831C7.44326 20.3884 6.90734 20.1608 6.617 19.8252C6.34441 19.5101 6.25251 19.0671 6.54617 18.5667C7.14044 17.5539 7.85793 16.6656 8.58616 16.1878C8.71994 16.1 8.81164 15.961 8.83967 15.8034C8.86769 15.6459 8.82956 15.4838 8.73425 15.3552C8.53961 15.0928 8.09236 14.6261 7.37156 14.3633C6.63123 14.0935 5.66081 14.0607 4.48374 14.5898C3.92288 14.8419 3.46086 14.8754 3.0956 14.8009C2.72838 14.7261 2.41848 14.5339 2.1762 14.269C1.66668 13.712 1.52254 12.9204 1.71781 12.4266C1.83592 12.128 1.68957 11.7902 1.39094 11.6721C1.09231 11.5539 0.75448 11.7003 0.636375 11.9989C0.248636 12.9793 0.565254 14.231 1.31813 15.054C1.70705 15.4791 2.22875 15.8111 2.86328 15.9404C3.49977 16.0702 4.20963 15.988 4.96054 15.6505C5.88229 15.2361 6.53864 15.2975 6.97325 15.4559C7.12696 15.512 7.26024 15.5829 7.37308 15.6574C6.66546 16.281 6.04274 17.1267 5.54315 17.9781C4.99298 18.9157 5.14447 19.9006 5.73752 20.5861C6.31282 21.2511 7.26478 21.5966 8.27126 21.4305C9.85752 21.1687 11.6559 20.9348 12.9939 20.9348C14.092 20.9348 15.3406 21.0929 16.4845 21.2953C17.494 21.4739 18.4722 21.1484 19.0909 20.5035C19.7282 19.8393 19.9584 18.8534 19.4591 17.8684C18.6014 16.1766 17.4489 14.6375 16.4911 13.641C19.1925 12.729 20.6045 11.3702 21.145 9.79855C21.71 8.15536 21.2552 6.45694 20.6863 5.1577C20.6874 5.15126 20.6884 5.14478 20.6895 5.13827C20.7889 4.54299 20.9406 3.63451 20.9993 2.77187C21.032 2.29163 21.0381 1.80034 20.9833 1.36949C20.9317 0.964515 20.8133 0.49403 20.4975 0.174536C20.3054 -0.0196765 20.0041 -0.0540773 19.7733 0.0918541C19.6651 0.160246 19.5231 0.245257 19.361 0.342371C19.0096 0.552771 18.5634 0.819982 18.1601 1.09809C17.7442 1.38493 17.2882 1.73754 16.9497 2.14094C15.9832 1.67045 14.7494 1.45556 13.5109 1.45556C12.1826 1.45556 10.778 1.70228 9.5794 2.21049C9.16678 1.82266 8.65308 1.46056 8.13463 1.13867C7.46999 0.726006 6.75887 0.35608 6.16049 0.061641Z" fill="black"/>
</svg>
