<svg width="22" height="22" viewBox="0 0 22 22" fill="none" xmlns="http://www.w3.org/2000/svg">
<path fill-rule="evenodd" clip-rule="evenodd" d="M5.57677 0.00208603L5.59543 0.00177765H13.5783C13.845 0.00177765 14.0753 0.188207 14.1309 0.449C14.1865 0.709794 14.0522 0.973947 13.8087 1.08267C13.7401 1.11331 13.6698 1.14461 13.5979 1.17661C12.287 1.76009 10.4474 2.57887 8.91358 3.87129C7.31331 5.21969 6.08647 7.04896 6.16021 9.63997C6.23669 12.3277 7.52744 13.94 8.99718 14.6376C10.5001 15.3509 12.187 15.1238 13.1792 14.1333C14.19 13.1243 14.4588 11.4756 13.9958 10.0467C13.5404 8.64134 12.4177 7.56077 10.7351 7.56077C10.4231 7.56077 10.1701 7.30781 10.1701 6.99577C10.1701 6.68373 10.4231 6.43077 10.7351 6.43077C13.0075 6.43077 14.4977 7.92968 15.0708 9.6984C15.6363 11.4436 15.3493 13.5636 13.9775 14.9331C12.5871 16.3211 10.3645 16.5374 8.51267 15.6585C6.62761 14.7638 5.11821 12.7483 5.03066 9.67211C4.94438 6.6401 6.40585 4.50666 8.18546 3.00716C9.10092 2.23578 10.1113 1.62308 11.0513 1.13178H5.60519C4.88602 1.1578 3.76889 1.47014 2.83613 2.33709C1.9166 3.19174 1.13011 4.62835 1.13011 6.99577V15.4141C1.14755 16.2292 1.44098 17.4713 2.2568 18.4977C3.05489 19.5018 4.3845 20.3418 6.57963 20.3418H15.4107C16.2123 20.2628 17.4419 19.8596 18.4682 18.8971C19.4878 17.9409 20.3401 16.4024 20.3401 13.979V5.45432C20.3232 5.02286 20.1602 4.35612 19.7335 3.80386C19.3222 3.27148 18.644 2.8136 17.5056 2.79437C16.3712 2.7752 15.8911 3.22126 15.6967 3.61923C15.5895 3.83877 15.5508 4.07852 15.5646 4.29382C15.579 4.51737 15.6464 4.67012 15.6997 4.73813C16.0805 5.22375 16.4185 5.23563 16.5932 5.18345C16.8083 5.11917 16.9501 4.92486 16.9501 4.72345C16.9501 4.41141 17.2031 4.15845 17.5151 4.15845C17.8272 4.15845 18.0801 4.41141 18.0801 4.72345C18.0801 5.45038 17.585 6.06648 16.9167 6.26616C16.2078 6.47795 15.4158 6.20732 14.8105 5.43543C14.5813 5.14319 14.4619 4.75311 14.437 4.36644C14.4115 3.97152 14.481 3.53364 14.6813 3.12338C15.1021 2.26172 16.0345 1.63935 17.5247 1.66453C19.0108 1.68963 20.0093 2.31249 20.6277 3.11302C21.2278 3.88973 21.4482 4.80252 21.4698 5.4244L21.4701 5.44394V13.979C21.4701 16.6988 20.4999 18.541 19.2412 19.7214C17.9998 20.8855 16.5103 21.3762 15.4887 21.4694C15.4716 21.471 15.4545 21.4718 15.4374 21.4718H6.57963C4.05063 21.4718 2.3912 20.4828 1.37219 19.2008C0.372705 17.9433 0.0204329 16.4452 0.000224387 15.4312L0 15.42L0.000112211 6.99577C0.000112211 4.35301 0.890397 2.60283 2.06683 1.50939C3.22619 0.431833 4.61883 0.0337488 5.57677 0.00208603Z" fill="black"/>
</svg>
