<svg width="24" height="22" viewBox="0 0 24 22" fill="none" xmlns="http://www.w3.org/2000/svg">
<path fill-rule="evenodd" clip-rule="evenodd" d="M0.312365 1.58639C0.837687 0.610939 1.95307 -0.0291364 3.35767 0.00102159C4.8378 0.0328014 5.83092 0.883304 6.27135 2.01153C6.69819 3.10493 6.60703 4.44131 6.04243 5.56735C5.54996 6.54955 4.60237 7.1538 3.71997 7.51709C3.08528 7.77839 2.43428 7.93605 1.89666 8.01911V20.2104H7.80068V6.88656C7.80068 6.53775 8.08345 6.25498 8.43226 6.25498H13.1374C13.4862 6.25498 13.769 6.53775 13.769 6.88656V7.69845C15.4988 6.39017 17.7096 5.9894 19.6283 6.43966C22.0257 7.00228 24 8.91014 24 12.0035V20.842C24 21.1908 23.7172 21.4736 23.3684 21.4736H18.4445C18.0957 21.4736 17.8129 21.1908 17.8129 20.842V13.916C17.8129 12.3969 17.4639 11.6871 17.1219 11.3956C16.8176 11.1364 16.3412 11.0698 15.6427 11.3494C14.9389 11.6312 14.5017 11.9982 14.2215 12.5102C13.929 13.0449 13.769 13.8073 13.769 14.9497V20.842C13.769 21.1908 13.4862 21.4736 13.1374 21.4736C12.7886 21.4736 12.5058 21.1908 12.5058 20.842V14.9497C12.5058 13.7145 12.6742 12.7066 13.1134 11.9039C13.565 11.0786 14.2632 10.541 15.1733 10.1767C16.0888 9.81024 17.1306 9.74363 17.9411 10.4341C18.7138 11.0925 19.0761 12.2821 19.0761 13.916V20.2104H22.7368V12.0035C22.7368 9.56645 21.2371 8.11468 19.3397 7.6694C17.4073 7.21593 15.0971 7.82393 13.6194 9.56892C13.4482 9.77114 13.1689 9.84496 12.9201 9.75376C12.6713 9.66257 12.5058 9.42575 12.5058 9.16076V7.51813H9.06383V20.842C9.06383 21.1908 8.78107 21.4736 8.43226 21.4736H1.26509C0.916277 21.4736 0.633511 21.1908 0.633511 20.842V7.45511C0.633511 7.12197 0.892262 6.84612 1.22472 6.82483C1.70438 6.7941 2.49159 6.6568 3.23908 6.34906C3.9971 6.03697 4.61791 5.59026 4.91327 5.00118C5.33348 4.16312 5.3791 3.19944 5.09468 2.47087C4.82387 1.77714 4.25772 1.28379 3.33056 1.26388C2.32786 1.24235 1.69249 1.6877 1.42449 2.18532C1.16183 2.67305 1.19295 3.30871 1.7232 3.86746C1.96331 4.12047 1.95286 4.52022 1.69985 4.76033C1.44683 5.00044 1.04708 4.98999 0.806969 4.73697C-0.0852705 3.7968 -0.218286 2.57174 0.312365 1.58639Z" fill="black"/>
</svg>
