<svg width="1280" height="720" viewBox="0 0 1280 720" fill="none" xmlns="http://www.w3.org/2000/svg">
<rect width="1280" height="720" fill="#820AD1"/>
<g clip-path="url(#clip0_105_6)">
<path d="M552.756 299.308C561.372 290.276 572.803 285 586.231 285C612.391 285 629.735 304.057 633.053 332.605C634.129 341.876 634.119 354.946 634.108 370.086C634.107 371.638 634.106 373.213 634.106 374.807V431.521H598.131V389.573C598.131 389.573 598.058 353.672 597.838 346.963C596.873 317.74 579.533 299.378 552.752 299.358C544.672 307.875 540.342 318.289 539.704 334.213C539.616 336.434 539.638 344.306 539.667 354.681C539.682 360.057 539.699 366.105 539.704 372.386C539.73 399.728 539.704 431.527 539.704 431.527H503.729V366.97C503.729 364.758 503.689 362.528 503.648 360.288C503.567 355.783 503.484 351.243 503.729 346.748C504.136 339.254 505.435 331.887 508.94 325.043C516.962 309.365 533.4 299.27 550.925 299.27C551.537 299.27 552.15 299.283 552.756 299.308Z" fill="#F7F7FF"/>
<path d="M775.896 373.253C776.141 368.757 776.059 364.217 775.977 359.712C775.937 357.473 775.896 355.242 775.896 353.03V288.473H739.922C739.922 288.473 739.895 320.272 739.922 347.613C739.926 353.895 739.943 359.942 739.958 365.318C739.987 375.694 740.009 383.566 739.922 385.787C739.283 401.711 734.954 412.125 726.874 420.642C700.093 420.622 682.754 402.26 681.788 373.037C681.568 366.328 681.475 349.677 681.475 330.393V288.445L645.527 288.479V345.193C645.527 346.787 645.526 348.361 645.525 349.914C645.513 365.054 645.504 378.124 646.58 387.395C649.891 415.944 667.235 435 693.395 435C706.824 435 718.254 429.724 726.871 420.691C727.476 420.717 728.089 420.73 728.701 420.73C746.225 420.73 762.663 410.635 770.686 394.957C774.191 388.113 775.49 380.746 775.896 373.253Z" fill="#F7F7FF"/>
</g>
<path d="M1039.97 641.252C1039.04 641.252 1038.24 641.089 1037.58 640.762C1036.92 640.435 1036.4 640.011 1035.99 639.488C1035.59 638.965 1035.3 638.401 1035.11 637.794C1034.93 637.178 1034.83 636.585 1034.83 636.016V635.708C1034.83 635.092 1034.93 634.476 1035.11 633.86C1035.31 633.244 1035.61 632.684 1036.01 632.18C1036.41 631.676 1036.93 631.27 1037.58 630.962C1038.22 630.654 1038.99 630.5 1039.89 630.5C1040.8 630.5 1041.59 630.659 1042.24 630.976C1042.89 631.293 1043.41 631.737 1043.79 632.306C1044.18 632.875 1044.41 633.547 1044.49 634.322H1043.09C1043.02 633.743 1042.83 633.267 1042.53 632.894C1042.23 632.511 1041.86 632.227 1041.4 632.04C1040.95 631.853 1040.45 631.76 1039.89 631.76C1039.28 631.76 1038.75 631.867 1038.29 632.082C1037.83 632.287 1037.45 632.581 1037.14 632.964C1036.84 633.337 1036.62 633.771 1036.46 634.266C1036.31 634.761 1036.23 635.297 1036.23 635.876C1036.23 636.427 1036.31 636.949 1036.46 637.444C1036.62 637.939 1036.85 638.377 1037.16 638.76C1037.47 639.143 1037.87 639.446 1038.33 639.67C1038.8 639.885 1039.35 639.992 1039.97 639.992C1040.85 639.992 1041.59 639.773 1042.18 639.334C1042.78 638.895 1043.14 638.261 1043.27 637.43H1044.67C1044.58 638.13 1044.34 638.769 1043.96 639.348C1043.59 639.927 1043.06 640.389 1042.39 640.734C1041.73 641.079 1040.92 641.252 1039.97 641.252ZM1046.47 641V633.524H1047.53V636.604H1047.47C1047.47 635.512 1047.71 634.714 1048.19 634.21C1048.67 633.697 1049.4 633.44 1050.36 633.44H1050.61V634.644H1050.13C1049.39 634.644 1048.81 634.845 1048.41 635.246C1048.01 635.638 1047.81 636.207 1047.81 636.954V641H1046.47ZM1055.3 641.252C1054.65 641.252 1054.09 641.14 1053.61 640.916C1053.13 640.692 1052.75 640.398 1052.45 640.034C1052.15 639.661 1051.93 639.245 1051.78 638.788C1051.64 638.331 1051.57 637.864 1051.57 637.388V637.136C1051.57 636.651 1051.64 636.179 1051.78 635.722C1051.93 635.265 1052.15 634.854 1052.45 634.49C1052.75 634.117 1053.12 633.823 1053.58 633.608C1054.05 633.384 1054.59 633.272 1055.22 633.272C1056.03 633.272 1056.7 633.449 1057.22 633.804C1057.75 634.149 1058.15 634.597 1058.4 635.148C1058.66 635.699 1058.79 636.287 1058.79 636.912V637.514H1052.15V636.506H1057.81L1057.5 637.052C1057.5 636.52 1057.42 636.063 1057.25 635.68C1057.08 635.288 1056.83 634.985 1056.49 634.77C1056.16 634.555 1055.73 634.448 1055.22 634.448C1054.69 634.448 1054.24 634.569 1053.89 634.812C1053.54 635.055 1053.28 635.386 1053.11 635.806C1052.94 636.226 1052.85 636.711 1052.85 637.262C1052.85 637.794 1052.94 638.275 1053.11 638.704C1053.28 639.124 1053.55 639.46 1053.92 639.712C1054.28 639.955 1054.74 640.076 1055.3 640.076C1055.89 640.076 1056.37 639.945 1056.73 639.684C1057.11 639.423 1057.33 639.119 1057.4 638.774H1058.66C1058.56 639.287 1058.36 639.731 1058.05 640.104C1057.74 640.477 1057.35 640.762 1056.89 640.958C1056.42 641.154 1055.89 641.252 1055.3 641.252ZM1065.22 641V638.76H1065V636.17C1065 635.657 1064.86 635.269 1064.59 635.008C1064.33 634.747 1063.94 634.616 1063.43 634.616C1063.14 634.616 1062.84 634.621 1062.53 634.63C1062.22 634.639 1061.93 634.649 1061.65 634.658C1061.37 634.667 1061.13 634.681 1060.92 634.7V633.524C1061.13 633.505 1061.34 633.491 1061.57 633.482C1061.8 633.463 1062.04 633.454 1062.28 633.454C1062.52 633.445 1062.76 633.44 1062.98 633.44C1063.75 633.44 1064.37 633.533 1064.86 633.72C1065.34 633.897 1065.7 634.191 1065.93 634.602C1066.17 635.013 1066.28 635.568 1066.28 636.268V641H1065.22ZM1062.77 641.196C1062.21 641.196 1061.72 641.103 1061.31 640.916C1060.91 640.72 1060.6 640.44 1060.38 640.076C1060.16 639.712 1060.05 639.273 1060.05 638.76C1060.05 638.228 1060.17 637.785 1060.4 637.43C1060.65 637.075 1061 636.809 1061.45 636.632C1061.91 636.445 1062.46 636.352 1063.11 636.352H1065.14V637.36H1063.05C1062.51 637.36 1062.09 637.491 1061.8 637.752C1061.51 638.013 1061.37 638.349 1061.37 638.76C1061.37 639.171 1061.51 639.502 1061.8 639.754C1062.09 640.006 1062.51 640.132 1063.05 640.132C1063.37 640.132 1063.67 640.076 1063.96 639.964C1064.25 639.843 1064.49 639.647 1064.67 639.376C1064.87 639.096 1064.98 638.713 1065 638.228L1065.36 638.76C1065.31 639.292 1065.18 639.74 1064.97 640.104C1064.76 640.459 1064.47 640.729 1064.1 640.916C1063.74 641.103 1063.29 641.196 1062.77 641.196ZM1071.66 641.084C1071.1 641.084 1070.62 641.005 1070.21 640.846C1069.81 640.687 1069.49 640.417 1069.27 640.034C1069.05 639.642 1068.95 639.115 1068.95 638.452V631.256H1070.23V638.62C1070.23 639.021 1070.34 639.334 1070.56 639.558C1070.78 639.773 1071.09 639.88 1071.49 639.88H1072.81V641.084H1071.66ZM1067.66 634.532V633.524H1072.81V634.532H1067.66ZM1077.84 641.252C1077.18 641.252 1076.62 641.14 1076.14 640.916C1075.67 640.692 1075.28 640.398 1074.98 640.034C1074.68 639.661 1074.46 639.245 1074.31 638.788C1074.17 638.331 1074.1 637.864 1074.1 637.388V637.136C1074.1 636.651 1074.17 636.179 1074.31 635.722C1074.46 635.265 1074.68 634.854 1074.98 634.49C1075.28 634.117 1075.66 633.823 1076.11 633.608C1076.58 633.384 1077.13 633.272 1077.75 633.272C1078.56 633.272 1079.23 633.449 1079.75 633.804C1080.29 634.149 1080.68 634.597 1080.93 635.148C1081.19 635.699 1081.32 636.287 1081.32 636.912V637.514H1074.69V636.506H1080.34L1080.03 637.052C1080.03 636.52 1079.95 636.063 1079.78 635.68C1079.61 635.288 1079.36 634.985 1079.03 634.77C1078.69 634.555 1078.26 634.448 1077.75 634.448C1077.22 634.448 1076.78 634.569 1076.42 634.812C1076.08 635.055 1075.81 635.386 1075.64 635.806C1075.47 636.226 1075.39 636.711 1075.39 637.262C1075.39 637.794 1075.47 638.275 1075.64 638.704C1075.81 639.124 1076.09 639.46 1076.45 639.712C1076.81 639.955 1077.28 640.076 1077.84 640.076C1078.42 640.076 1078.9 639.945 1079.26 639.684C1079.64 639.423 1079.86 639.119 1079.94 638.774H1081.2C1081.09 639.287 1080.89 639.731 1080.58 640.104C1080.27 640.477 1079.88 640.762 1079.42 640.958C1078.95 641.154 1078.42 641.252 1077.84 641.252ZM1086.35 641.252C1085.82 641.252 1085.33 641.154 1084.88 640.958C1084.43 640.762 1084.04 640.487 1083.71 640.132C1083.38 639.777 1083.12 639.367 1082.94 638.9C1082.76 638.433 1082.67 637.929 1082.67 637.388V637.136C1082.67 636.604 1082.76 636.105 1082.94 635.638C1083.11 635.171 1083.36 634.761 1083.68 634.406C1084 634.051 1084.39 633.776 1084.83 633.58C1085.27 633.375 1085.77 633.272 1086.31 633.272C1086.88 633.272 1087.4 633.393 1087.86 633.636C1088.33 633.869 1088.71 634.238 1089.01 634.742C1089.31 635.246 1089.48 635.899 1089.52 636.702L1088.96 635.806V630.78H1090.3V641H1089.24V637.682H1089.63C1089.59 638.531 1089.41 639.222 1089.1 639.754C1088.78 640.277 1088.38 640.659 1087.89 640.902C1087.42 641.135 1086.9 641.252 1086.35 641.252ZM1086.53 640.076C1086.99 640.076 1087.41 639.973 1087.78 639.768C1088.15 639.563 1088.45 639.269 1088.68 638.886C1088.9 638.494 1089.01 638.037 1089.01 637.514V636.87C1089.01 636.357 1088.89 635.923 1088.66 635.568C1088.44 635.204 1088.13 634.929 1087.75 634.742C1087.38 634.546 1086.97 634.448 1086.52 634.448C1086.02 634.448 1085.59 634.565 1085.2 634.798C1084.83 635.031 1084.54 635.358 1084.32 635.778C1084.12 636.198 1084.01 636.693 1084.01 637.262C1084.01 637.831 1084.12 638.331 1084.34 638.76C1084.55 639.18 1084.85 639.507 1085.23 639.74C1085.61 639.964 1086.05 640.076 1086.53 640.076ZM1100.02 641.252C1099.4 641.252 1098.85 641.117 1098.36 640.846C1097.89 640.575 1097.51 640.183 1097.23 639.67C1096.95 639.147 1096.8 638.522 1096.77 637.794H1097.13V641H1096.07V630.78H1097.41V635.75L1096.94 636.772C1096.97 635.96 1097.14 635.297 1097.43 634.784C1097.71 634.271 1098.09 633.893 1098.56 633.65C1099.04 633.398 1099.56 633.272 1100.13 633.272C1100.66 633.272 1101.14 633.375 1101.58 633.58C1102.02 633.776 1102.4 634.051 1102.72 634.406C1103.03 634.751 1103.28 635.157 1103.45 635.624C1103.61 636.081 1103.7 636.576 1103.7 637.108V637.36C1103.7 637.892 1103.61 638.391 1103.43 638.858C1103.26 639.325 1103.02 639.74 1102.69 640.104C1102.36 640.459 1101.97 640.739 1101.51 640.944C1101.07 641.149 1100.57 641.252 1100.02 641.252ZM1099.86 640.076C1100.37 640.076 1100.8 639.955 1101.18 639.712C1101.55 639.469 1101.84 639.138 1102.05 638.718C1102.25 638.289 1102.35 637.794 1102.35 637.234C1102.35 636.674 1102.25 636.184 1102.03 635.764C1101.83 635.344 1101.54 635.022 1101.16 634.798C1100.79 634.565 1100.36 634.448 1099.86 634.448C1099.41 634.448 1099 634.551 1098.62 634.756C1098.23 634.952 1097.92 635.241 1097.69 635.624C1097.47 635.997 1097.36 636.45 1097.36 636.982V637.626C1097.36 638.139 1097.47 638.578 1097.71 638.942C1097.94 639.306 1098.25 639.586 1098.63 639.782C1099.01 639.978 1099.42 640.076 1099.86 640.076ZM1105.08 643.912V642.708H1106.16C1106.47 642.708 1106.74 642.666 1106.95 642.582C1107.18 642.507 1107.36 642.377 1107.5 642.19C1107.65 642.003 1107.77 641.756 1107.86 641.448L1110.22 633.524H1111.53L1109.04 641.798C1108.89 642.293 1108.68 642.694 1108.41 643.002C1108.14 643.319 1107.81 643.548 1107.42 643.688C1107.03 643.837 1106.59 643.912 1106.07 643.912H1105.08ZM1107.36 640.832V639.712H1108.98V640.832H1107.36ZM1107.22 640.832L1104.55 633.524H1105.92L1108.48 640.832H1107.22Z" fill="white"/>
<path d="M1036.09 688L1041.13 662.8H1049.59C1052.25 662.8 1054.32 663.388 1055.78 664.564C1057.27 665.716 1058.01 667.36 1058.01 669.496C1058.01 671.656 1057.54 673.468 1056.61 674.932C1055.7 676.396 1054.39 677.5 1052.68 678.244C1050.98 678.988 1048.95 679.36 1046.6 679.36H1038.21L1038.61 679.036L1036.81 688H1036.09ZM1038.61 678.964L1038.36 678.676H1046.56C1049.97 678.676 1052.61 677.908 1054.48 676.372C1056.36 674.836 1057.29 672.544 1057.29 669.496C1057.29 667.576 1056.63 666.1 1055.31 665.068C1053.99 664.012 1052.1 663.484 1049.62 663.484H1041.38L1041.78 663.124L1038.61 678.964ZM1068.25 688.108C1066.54 688.108 1065.07 687.808 1063.82 687.208C1062.59 686.608 1061.66 685.744 1061.01 684.616C1060.36 683.464 1060.04 682.072 1060.04 680.44C1060.04 678.328 1060.47 676.432 1061.33 674.752C1062.2 673.072 1063.37 671.74 1064.86 670.756C1066.37 669.772 1068.08 669.28 1069.97 669.28C1071.56 669.28 1072.91 669.58 1074.04 670.18C1075.17 670.78 1076.03 671.644 1076.63 672.772C1077.26 673.9 1077.57 675.256 1077.57 676.84C1077.57 677.152 1077.55 677.476 1077.5 677.812C1077.47 678.124 1077.44 678.412 1077.39 678.676H1060.61L1060.76 677.992H1077.07L1076.78 678.388C1077.07 676.564 1076.95 675.028 1076.42 673.78C1075.89 672.532 1075.06 671.584 1073.93 670.936C1072.83 670.288 1071.51 669.964 1069.97 669.964C1068.22 669.964 1066.64 670.42 1065.22 671.332C1063.83 672.244 1062.73 673.492 1061.91 675.076C1061.12 676.636 1060.72 678.424 1060.72 680.44C1060.72 682.696 1061.37 684.424 1062.67 685.624C1063.96 686.824 1065.83 687.424 1068.28 687.424C1069.7 687.424 1070.99 687.184 1072.17 686.704C1073.35 686.2 1074.31 685.516 1075.05 684.652L1075.48 685.12C1074.74 686.008 1073.72 686.728 1072.42 687.28C1071.15 687.832 1069.76 688.108 1068.25 688.108ZM1089.12 688.108C1087.51 688.108 1086.11 687.808 1084.91 687.208C1083.73 686.584 1082.82 685.708 1082.17 684.58C1081.53 683.428 1081.2 682.084 1081.2 680.548C1081.2 678.94 1081.45 677.452 1081.96 676.084C1082.49 674.716 1083.22 673.528 1084.15 672.52C1085.09 671.488 1086.19 670.696 1087.47 670.144C1088.76 669.568 1090.18 669.28 1091.71 669.28C1093.37 669.28 1094.77 669.58 1095.93 670.18C1097.08 670.78 1097.95 671.644 1098.55 672.772C1099.18 673.876 1099.49 675.208 1099.49 676.768C1099.49 678.376 1099.24 679.876 1098.73 681.268C1098.25 682.636 1097.55 683.836 1096.61 684.868C1095.7 685.876 1094.61 686.668 1093.33 687.244C1092.06 687.82 1090.66 688.108 1089.12 688.108ZM1089.23 687.424C1091.1 687.424 1092.76 686.968 1094.2 686.056C1095.66 685.144 1096.81 683.896 1097.65 682.312C1098.49 680.704 1098.91 678.892 1098.91 676.876C1098.91 674.668 1098.27 672.964 1096.97 671.764C1095.7 670.564 1093.91 669.964 1091.61 669.964C1089.76 669.964 1088.1 670.432 1086.64 671.368C1085.17 672.28 1084.02 673.528 1083.18 675.112C1082.34 676.696 1081.92 678.496 1081.92 680.512C1081.92 682.696 1082.56 684.4 1083.83 685.624C1085.13 686.824 1086.93 687.424 1089.23 687.424ZM1096.9 688L1098.19 681.52L1099.13 679L1099.24 676.228L1102.23 661.288H1102.95L1097.62 688H1096.9ZM1105.86 688L1109.57 669.388H1110.29L1109.13 675.148L1108.95 674.968C1109.72 673.192 1110.81 671.8 1112.23 670.792C1113.65 669.784 1115.45 669.28 1117.63 669.28L1117.49 670C1117.44 670 1117.38 670 1117.31 670C1117.26 670 1117.21 670 1117.16 670C1114.88 670 1113.01 670.708 1111.55 672.124C1110.08 673.516 1109.07 675.568 1108.52 678.28L1106.58 688H1105.86ZM1126.53 688.108C1124.92 688.108 1123.52 687.808 1122.32 687.208C1121.14 686.584 1120.23 685.708 1119.58 684.58C1118.93 683.428 1118.61 682.084 1118.61 680.548C1118.61 678.388 1119.05 676.468 1119.94 674.788C1120.85 673.084 1122.1 671.74 1123.68 670.756C1125.27 669.772 1127.08 669.28 1129.12 669.28C1130.75 669.28 1132.16 669.592 1133.33 670.216C1134.51 670.816 1135.42 671.68 1136.07 672.808C1136.72 673.936 1137.04 675.28 1137.04 676.84C1137.04 679 1136.58 680.932 1135.67 682.636C1134.78 684.316 1133.55 685.648 1131.96 686.632C1130.38 687.616 1128.57 688.108 1126.53 688.108ZM1126.64 687.424C1128.51 687.424 1130.16 686.968 1131.6 686.056C1133.07 685.144 1134.22 683.896 1135.06 682.312C1135.9 680.704 1136.32 678.892 1136.32 676.876C1136.32 674.668 1135.67 672.964 1134.38 671.764C1133.1 670.564 1131.32 669.964 1129.01 669.964C1127.16 669.964 1125.51 670.432 1124.04 671.368C1122.58 672.28 1121.43 673.528 1120.59 675.112C1119.75 676.696 1119.33 678.496 1119.33 680.512C1119.33 682.696 1119.96 684.4 1121.24 685.624C1122.53 686.824 1124.33 687.424 1126.64 687.424ZM1150.73 688L1155.77 662.8H1164.81C1167.33 662.8 1169.44 663.22 1171.14 664.06C1172.87 664.9 1174.17 666.076 1175.03 667.588C1175.92 669.1 1176.36 670.864 1176.36 672.88C1176.36 675.064 1175.99 677.08 1175.25 678.928C1174.53 680.776 1173.48 682.384 1172.12 683.752C1170.75 685.096 1169.09 686.14 1167.15 686.884C1165.23 687.628 1163.07 688 1160.67 688H1150.73ZM1151.6 687.316H1160.74C1163.79 687.316 1166.42 686.704 1168.62 685.48C1170.86 684.232 1172.58 682.528 1173.81 680.368C1175.03 678.184 1175.64 675.688 1175.64 672.88C1175.64 671.008 1175.24 669.364 1174.42 667.948C1173.63 666.532 1172.43 665.44 1170.82 664.672C1169.21 663.88 1167.18 663.484 1164.74 663.484H1156.35L1151.6 687.316ZM1187.39 688.108C1185.68 688.108 1184.31 687.784 1183.28 687.136C1182.27 686.464 1181.59 685.552 1181.23 684.4C1180.89 683.224 1180.87 681.88 1181.16 680.368L1183.35 669.388H1184.07L1181.88 680.368C1181.45 682.552 1181.7 684.28 1182.63 685.552C1183.57 686.8 1185.18 687.424 1187.46 687.424C1189.81 687.424 1191.77 686.776 1193.33 685.48C1194.89 684.16 1195.92 682.24 1196.42 679.72L1198.47 669.388H1199.19L1195.49 688H1194.77L1195.85 682.6L1196.21 682.42C1195.32 684.388 1194.11 685.828 1192.57 686.74C1191.06 687.652 1189.33 688.108 1187.39 688.108ZM1208.66 688.108C1207.68 688.108 1206.88 687.916 1206.25 687.532C1205.63 687.124 1205.21 686.56 1204.99 685.84C1204.8 685.096 1204.8 684.208 1204.99 683.176L1208.56 665.32H1209.28L1205.75 682.996C1205.44 684.484 1205.53 685.6 1206.04 686.344C1206.54 687.064 1207.44 687.424 1208.74 687.424C1209.36 687.424 1209.95 687.328 1210.5 687.136C1211.05 686.944 1211.56 686.656 1212.01 686.272L1212.41 686.776C1211.9 687.232 1211.32 687.568 1210.64 687.784C1209.97 688 1209.31 688.108 1208.66 688.108ZM1204.02 670.072L1204.13 669.388H1214.75L1214.64 670.072H1204.02ZM1217.69 688L1221.4 669.388H1222.12L1220.97 675.148L1220.79 674.968C1221.55 673.192 1222.65 671.8 1224.06 670.792C1225.48 669.784 1227.28 669.28 1229.46 669.28L1229.32 670C1229.27 670 1229.21 670 1229.14 670C1229.09 670 1229.04 670 1228.99 670C1226.71 670 1224.84 670.708 1223.38 672.124C1221.91 673.516 1220.91 675.568 1220.35 678.28L1218.41 688H1217.69ZM1238.36 688.108C1236.75 688.108 1235.35 687.808 1234.15 687.208C1232.97 686.584 1232.06 685.708 1231.41 684.58C1230.76 683.428 1230.44 682.084 1230.44 680.548C1230.44 678.94 1230.69 677.452 1231.2 676.084C1231.72 674.716 1232.46 673.528 1233.39 672.52C1234.33 671.488 1235.43 670.696 1236.7 670.144C1238 669.568 1239.42 669.28 1240.95 669.28C1242.61 669.28 1244.01 669.58 1245.16 670.18C1246.32 670.78 1247.19 671.644 1247.79 672.772C1248.42 673.876 1248.73 675.208 1248.73 676.768C1248.75 678.904 1248.32 680.836 1247.43 682.564C1246.57 684.268 1245.36 685.624 1243.8 686.632C1242.24 687.616 1240.42 688.108 1238.36 688.108ZM1238.47 687.424C1240.34 687.424 1242 686.968 1243.44 686.056C1244.9 685.144 1246.05 683.896 1246.89 682.312C1247.73 680.704 1248.15 678.892 1248.15 676.876C1248.15 674.668 1247.5 672.964 1246.21 671.764C1244.94 670.564 1243.15 669.964 1240.84 669.964C1239 669.964 1237.34 670.432 1235.88 671.368C1234.41 672.28 1233.26 673.528 1232.42 675.112C1231.58 676.696 1231.16 678.496 1231.16 680.512C1231.16 682.696 1231.8 684.4 1233.07 685.624C1234.36 686.824 1236.16 687.424 1238.47 687.424ZM1246.14 688L1247.43 681.52L1248.37 679L1248.48 676.228L1249.84 669.388H1250.56L1246.86 688H1246.14Z" fill="white"/>
<defs>
<clipPath id="clip0_105_6">
<rect width="275.625" height="150" fill="white" transform="translate(502 285)"/>
</clipPath>
</defs>
</svg>
