<svg width="20" height="15" viewBox="0 0 20 15" fill="none" xmlns="http://www.w3.org/2000/svg">
<path fill-rule="evenodd" clip-rule="evenodd" d="M2.79168 1.92857C2.79168 1.12485 3.45957 0.5 4.25 0.5H15.7499C16.5403 0.5 17.2082 1.12485 17.2082 1.92857V10.6885C17.2082 10.8315 17.2856 10.9716 17.4248 11.0525L18.7843 11.8429C20.0927 12.6036 19.4838 14.5 18.0399 14.5H1.95991C0.516032 14.5 -0.0928714 12.6036 1.21556 11.8429L2.81276 10.9144L3.06406 11.3466L2.81276 10.9144C3.03867 10.783 3.29591 10.7143 3.55712 10.7143H13.8332C14.1094 10.7143 14.3332 10.9381 14.3332 11.2143C14.3332 11.4904 14.1094 11.7143 13.8332 11.7143H3.55712C3.47094 11.7143 3.38733 11.737 3.31536 11.7789L1.71816 12.7074C1.3597 12.9158 1.45989 13.5 1.95991 13.5H18.0399C18.54 13.5 18.6402 12.9158 18.2817 12.7074L16.9222 11.917C16.484 11.6623 16.2082 11.1979 16.2082 10.6885V1.92857C16.2082 1.70662 16.018 1.5 15.7499 1.5H4.25C3.98189 1.5 3.79168 1.70662 3.79168 1.92857V8.42857C3.79168 8.70471 3.56782 8.92857 3.29168 8.92857C3.01553 8.92857 2.79168 8.70471 2.79168 8.42857V1.92857Z" fill="black"/>
</svg>
