<svg width="22" height="22" viewBox="0 0 22 22" fill="none" xmlns="http://www.w3.org/2000/svg">
<path fill-rule="evenodd" clip-rule="evenodd" d="M5.00262 1.6779C10.5449 -1.24069 14.9961 0.168536 17.4795 2.00832C21.0306 4.63916 23.867 10.3961 20.0748 16.0531C18.0632 19.0539 15.2747 20.3472 12.5746 20.6966C9.99857 21.0299 7.49664 20.5075 5.77928 19.8053L1.15714 21.4395C0.962964 21.5081 0.74681 21.4657 0.593017 21.3287C0.439224 21.1917 0.372159 20.9818 0.417989 20.7811L1.63506 15.4486C-0.654034 9.41307 1.16785 5.45072 2.56082 4.13747C2.78786 3.92342 3.14544 3.93395 3.3595 4.161C3.57355 4.38805 3.56301 4.74563 3.33597 4.95968C2.32735 5.91057 0.50006 9.41823 2.7507 15.2017C2.79168 15.307 2.80014 15.4222 2.775 15.5323L1.74799 20.032L5.60865 18.6671C5.74316 18.6196 5.89068 18.6247 6.02159 18.6814C7.58518 19.3588 9.98112 19.8928 12.4296 19.576C14.8593 19.2615 17.3335 18.113 19.1362 15.4239C22.4879 10.4241 20.0398 5.3114 16.8068 2.91629C14.6681 1.33184 10.7696 0.023195 5.76444 2.55623C5.55278 3.65993 5.43871 5.33225 5.75906 7.10073C6.10427 9.0065 6.94701 10.9915 8.68081 12.5168C12.5396 15.9116 15.479 14.7943 16.5423 13.7693L14.2687 12.4499L12.9809 13.5996C12.8276 13.7364 12.6121 13.7793 12.4181 13.7114C11.7859 13.4903 10.8165 13.0398 9.91708 12.3919C9.02766 11.7512 8.13388 10.865 7.77042 9.7496C7.71352 9.57501 7.74503 9.38365 7.85491 9.23651L8.7227 8.07439L7.70934 5.69306C7.40384 5.83135 7.04896 6.03571 6.81158 6.28748C6.59752 6.51452 6.23994 6.52504 6.0129 6.31098C5.78586 6.09692 5.77534 5.73934 5.9894 5.5123C6.57492 4.89129 7.48685 4.53749 7.86529 4.43131C8.13872 4.35459 8.4266 4.49275 8.5378 4.75406L9.88969 7.93088C9.96845 8.11597 9.94287 8.32898 9.82251 8.49016L8.947 9.66261C9.25264 10.3402 9.85868 10.9572 10.5776 11.475C11.2407 11.9528 11.9514 12.3113 12.4843 12.5282L13.8217 11.3342C14.004 11.1715 14.2702 11.1443 14.4815 11.267L17.6681 13.1162C17.9326 13.2697 18.027 13.6057 17.881 13.8745C16.8951 15.6899 12.7745 17.6234 7.93442 13.3652C5.96019 11.6284 5.02456 9.38556 4.64716 7.30214C4.27069 5.22386 4.44278 3.27196 4.71445 2.05475C4.75056 1.89294 4.85592 1.75516 5.00262 1.6779Z" fill="black"/>
</svg>
